<?xml version="1.0" encoding="iso-8859-1"?>
<!-- Generator: Adobe Illustrator 18.0.0, SVG Export Plug-In . SVG Version: 6.00 Build 0)  -->
<!DOCTYPE svg PUBLIC "-//W3C//DTD SVG 1.1//EN" "http://www.w3.org/Graphics/SVG/1.1/DTD/svg11.dtd">
<svg version="1.1" id="Capa_1" xmlns="http://www.w3.org/2000/svg" xmlns:xlink="http://www.w3.org/1999/xlink" x="0px" y="0px"
	 viewBox="0 0 374.84 374.84" style="enable-background:new 0 0 374.84 374.84;" xml:space="preserve">
<path d="M253.796,291.092h-19.563c-6.144,0-11.124,4.98-11.124,11.124v3.238l-6.818-7.924l17.281-47.161
	c1.583-4.319,2.958-8.773,4.087-13.238c4.963-19.622,6.973-30.724,5.347-54.425l-0.066-3.123
	c-0.282-13.506-11.5-24.494-25.008-24.494h-4.92c-2.639-12.05-4.649-24.27-6.006-36.607l14.915-7.834v4.654
	c0,6.144,4.98,11.124,11.124,11.124h18.752c6.143,0,11.124-4.98,11.124-11.124V73.216c0-6.144-4.98-11.124-11.124-11.124h-18.752
	c-6.144,0-11.124,4.98-11.124,11.124v11.847l-17.044-6.356c0-0.225,0.088-21.617,0.088-21.617h45.313
	c5.508,0,9.972-4.465,9.972-9.972V28.731c0-5.508-4.465-9.972-9.972-9.972h-45.146l0.002-0.465c0.021-4.784-1.67-9.49-5.004-12.92
	c-4.16-4.28-10.09-6.189-16.162-5.049c-2.233,0.419-4.376,1.292-6.263,2.557c-5.134,3.444-8.023,8.958-8,14.884l0.001,0.993h-45.143
	c-5.508,0-9.972,4.465-9.972,9.972v18.385c0,5.508,4.465,9.972,9.972,9.972h45.182c0,0,0.018,21.543,0.018,21.844l-16.843,6.177
	V73.216c0-6.144-4.98-11.124-11.124-11.124h-18.752c-6.144,0-11.124,4.98-11.124,11.124v42.086c0,6.144,4.98,11.124,11.124,11.124
	h18.752c6.143,0,11.124-4.98,11.124-11.124v-4.724l14.821,7.661c-1.326,12.505-3.309,24.806-5.925,36.85h-4.956
	c-13.475,0-24.728,11.023-25.007,24.494l-0.077,3.727c-1.5,23.147,0.49,34.062,5.378,53.393c1.108,4.384,2.453,8.757,3.997,12.998
	l17.41,47.816l-6.829,7.937v-3.238c0-6.144-4.98-11.124-11.124-11.124h-19.564c-6.144,0-11.124,4.98-11.124,11.124v42.086
	c0,6.144,4.98,11.124,11.124,11.124h19.564c6.144,0,11.124-4.98,11.124-11.124v-18.918l11.928-13.861l0.625,1.717
	c2.764,7.59,9.076,13.211,16.636,15.294v9.104h-13.752c-5.508,0-9.972,4.465-9.972,9.973v17.258c0,5.508,4.465,9.973,9.972,9.973
	h40.503c5.508,0,9.972-4.465,9.972-9.973v-17.258c0-5.508-4.465-9.973-9.972-9.973h-13.751v-9.11
	c7.532-2.085,13.827-7.685,16.596-15.24l0.651-1.778l11.94,13.877v18.917c0,6.144,4.98,11.124,11.124,11.124h19.564
	c6.143,0,11.124-4.98,11.124-11.124v-42.086C264.92,296.072,259.94,291.092,253.796,291.092z M234.92,75.092h15v38.334h-15V75.092z
	 M139.92,113.426h-15V75.092h15V113.426z M138.732,342.426H122.92v-38.334h15.812V342.426z M204.644,361.84h-34.448v-11.203h34.448
	V361.84z M205.251,189.528l-1.367,12.23h-32.927l-1.366-12.221c0.03-9.809,8.016-17.779,17.831-17.779
	C197.233,171.759,205.216,179.725,205.251,189.528z M202.43,214.759l-3.426,30.644c-0.66,5.907-5.64,10.361-11.583,10.361h0
	c-5.943,0-10.923-4.454-11.583-10.361l-3.426-30.644H202.43z M218.609,97.702l-12.856,6.753c-0.274-3.919-0.483-7.847-0.628-11.782
	L218.609,97.702z M247.25,31.759v12.33h-42.229l0.054-12.33H247.25z M184.079,14.388c0.892-0.895,2.078-1.388,3.341-1.388
	c1.263,0,2.449,0.493,3.341,1.388c0.891,0.895,1.379,2.083,1.375,3.343l-0.262,60.249c-0.112,28.493,3.045,56.722,9.377,84.067
	c-4.163-2.099-8.859-3.288-13.83-3.288c-4.975,0-9.674,1.191-13.839,3.293c6.206-26.956,9.299-55.183,9.184-84.054l-0.062-60.265
	C182.7,16.471,183.188,15.282,184.079,14.388z M127.59,44.089v-12.33h42.129l0.013,12.33H127.59z M156.33,97.706l13.192-4.838
	c-0.136,3.801-0.329,7.586-0.581,11.356L156.33,97.706z M149.757,233.517c-4.649-18.386-6.403-28.012-5-49.504l0.092-4.16
	c0.134-6.486,5.521-11.764,12.01-11.764h1.865c-0.051,0.196-0.901,3.46-0.901,3.46c-1.546,5.905-1.987,11.976-1.309,18.042
	l6.402,57.257c1.397,12.494,11.931,21.916,24.504,21.916c12.572,0,23.106-9.422,24.503-21.916l6.402-57.257
	c0.678-6.066,0.237-12.137-1.31-18.043c0,0-0.85-3.262-0.901-3.459h1.816c6.488,0,11.876,5.278,12.011,11.769l0.084,3.59
	c1.523,22.034-0.249,31.828-4.971,50.496c-1.02,4.031-2.261,8.054-3.69,11.953l-14.851,40.529h-38.157l-14.991-41.172
	C151.973,241.425,150.758,237.476,149.757,233.517z M198.311,308.813c-1.669,4.555-6.05,7.615-10.901,7.615
	c-4.861,0-9.246-3.069-10.909-7.637l-3.119-8.567l0.687-0.799h26.703l0.687,0.798L198.311,308.813z M251.92,342.426h-15.812v-38.334
	h15.812V342.426z"/>
<g>
</g>
<g>
</g>
<g>
</g>
<g>
</g>
<g>
</g>
<g>
</g>
<g>
</g>
<g>
</g>
<g>
</g>
<g>
</g>
<g>
</g>
<g>
</g>
<g>
</g>
<g>
</g>
<g>
</g>
</svg>
